<?xml version="1.0" standalone="no"?>
<!DOCTYPE svg PUBLIC "-//W3C//DTD SVG 20010904//EN"
 "http://www.w3.org/TR/2001/REC-SVG-20010904/DTD/svg10.dtd">
<svg version="1.0" xmlns="http://www.w3.org/2000/svg"
 width="300.000000pt" height="157.000000pt" viewBox="0 0 300.000000 157.000000"
 preserveAspectRatio="xMidYMid meet">
<metadata>
Created by potrace 1.10, written by Peter Selinger 2001-2011
</metadata>
<g transform="translate(0.000000,157.000000) scale(0.100000,-0.100000)"
fill="#000000" stroke="none">
<path d="M763 1135 c-18 -7 -67 -48 -110 -89 l-78 -75 270 -1 270 0 -133 -133
-132 -132 143 -142 142 -142 268 -3 c147 -2 267 -1 267 2 0 3 -156 161 -347
352 -234 233 -360 352 -385 363 -46 19 -132 19 -175 0z m165 -36 c2 -5 9 -9
16 -9 17 0 81 -68 72 -77 -11 -11 -308 -14 -325 -4 -24 16 45 79 114 103 26 9
119 0 123 -13z m433 -396 c131 -131 239 -244 239 -250 0 -10 -52 -13 -228 -13
l-227 0 -129 129 c-98 99 -126 133 -119 145 12 22 206 223 217 225 5 0 116
-106 247 -236z"/>
<path d="M1976 1104 c-10 -26 19 -52 42 -38 9 6 17 20 17 30 0 26 -50 32 -59
8z"/>
<path d="M1740 953 l0 -153 73 0 c82 0 130 22 141 63 7 31 -8 75 -29 83 -13 5
-12 10 5 31 25 32 25 64 1 94 -17 21 -30 25 -105 29 l-86 5 0 -152z m147 80
c18 -24 -1 -53 -37 -54 -17 -1 -35 -2 -42 -3 -9 -1 -14 43 -9 80 2 12 77 -7
88 -23z m7 -125 c18 -30 -4 -53 -56 -56 l-44 -3 2 43 c2 24 3 43 3 44 1 0 20
-2 42 -5 24 -4 47 -13 53 -23z"/>
<path d="M2340 1102 l-25 -3 0 -149 0 -150 28 0 c27 0 27 1 27 65 l0 65 71 0
71 0 -4 -65 -3 -65 30 0 30 0 0 150 0 150 -30 0 -30 0 3 -60 4 -60 -71 0 -70
0 -3 63 c-3 60 -4 62 -28 59z"/>
<path d="M2860 1050 c0 -20 -5 -30 -15 -30 -8 0 -15 -9 -15 -20 0 -11 7 -20
15 -20 12 0 15 -14 15 -68 0 -85 20 -112 80 -112 36 0 40 3 40 25 0 21 -5 25
-29 25 -34 0 -41 14 -41 81 0 48 1 49 30 49 25 0 30 4 30 25 0 22 -3 24 -30
19 -28 -6 -30 -5 -30 25 0 26 -4 31 -25 31 -21 0 -25 -5 -25 -30z"/>
<path d="M1980 913 l0 -113 28 0 27 0 -3 112 c-3 112 -3 113 -28 113 l-24 0 0
-112z"/>
<path d="M2110 1017 c-60 -30 -74 -129 -24 -182 27 -29 93 -35 114 -10 19 22
32 18 24 -7 -16 -55 -76 -76 -120 -43 -10 8 -22 15 -26 15 -14 0 -8 -47 7 -60
26 -21 98 -24 134 -5 48 24 61 66 61 195 l0 110 -25 0 c-19 0 -25 -5 -25 -21
l0 -20 -26 20 c-30 24 -58 26 -94 8z m92 -54 c27 -24 24 -79 -6 -98 -58 -38
-117 44 -69 97 20 22 51 23 75 1z"/>
<path d="M2644 1019 c-46 -23 -68 -102 -44 -163 19 -52 101 -76 139 -42 22 20
31 20 31 1 0 -9 10 -15 26 -15 20 0 25 4 20 16 -3 9 -6 57 -6 109 0 84 -2 93
-20 98 -15 4 -20 0 -20 -14 0 -24 -5 -24 -30 1 -21 21 -62 25 -96 9z m96 -59
c39 -39 14 -110 -40 -110 -55 0 -77 72 -34 114 21 22 50 20 74 -4z"/>
<path d="M302 688 c-149 -150 -272 -272 -272 -273 0 0 120 1 267 3 l268 3 138
137 c75 75 137 141 137 147 0 6 -49 60 -110 120 -60 60 -110 107 -110 103 0
-3 47 -53 105 -111 58 -57 105 -107 105 -110 0 -3 -62 -66 -137 -141 l-137
-136 -243 0 c-134 0 -243 3 -243 7 0 4 116 123 257 265 142 142 255 258 253
258 -3 0 -128 -123 -278 -272z"/>
<path d="M2030 590 c-25 -25 -26 -52 -1 -74 37 -33 82 4 66 54 -11 34 -41 44
-65 20z m48 -33 c2 -18 -2 -29 -13 -33 -24 -9 -39 10 -31 41 9 35 40 30 44 -8z"/>
<path d="M2242 594 c-35 -24 -22 -94 17 -94 21 0 47 27 37 37 -4 4 -11 1 -16
-6 -12 -21 -40 -5 -40 23 0 29 17 43 33 27 14 -14 27 -14 27 -1 0 21 -36 29
-58 14z"/>
<path d="M1860 551 c0 -50 1 -51 30 -51 29 0 57 29 42 44 -3 4 -7 17 -7 29 0
17 -7 23 -32 25 l-33 3 0 -50z m58 -18 c2 -8 -5 -13 -17 -13 -12 0 -21 6 -21
16 0 18 31 15 38 -3z"/>
<path d="M1966 554 c3 -63 14 -68 14 -6 0 29 -4 52 -8 52 -4 0 -7 -21 -6 -46z"/>
<path d="M2130 580 c0 -12 10 -25 25 -32 14 -6 25 -15 25 -20 0 -13 -38 -9
-43 5 -2 6 -8 9 -12 5 -11 -10 14 -38 34 -38 18 0 41 18 41 32 0 5 -14 17 -31
27 -19 12 -26 21 -19 26 6 4 18 1 27 -7 14 -11 16 -11 11 2 -2 8 -17 16 -31
18 -22 3 -27 -1 -27 -18z"/>
<path d="M2330 550 c0 -27 5 -50 10 -50 6 0 10 23 10 50 0 28 -4 50 -10 50 -5
0 -10 -22 -10 -50z"/>
<path d="M2382 553 c3 -46 4 -48 36 -51 18 -2 32 1 32 7 0 6 -11 11 -25 11
-32 0 -34 27 -2 33 l22 4 -22 2 c-14 0 -23 7 -23 17 0 11 6 15 20 11 11 -3 23
-1 26 4 3 5 -11 9 -31 9 l-36 0 3 -47z"/>
<path d="M2480 549 c0 -27 4 -48 8 -45 5 3 7 19 4 37 -6 39 10 33 28 -11 18
-44 30 -37 30 20 0 53 -16 69 -22 23 l-4 -28 -14 28 c-20 41 -30 33 -30 -24z"/>
<path d="M2592 588 c-25 -25 -6 -88 27 -88 21 0 47 27 37 37 -4 4 -11 1 -16
-6 -12 -21 -40 -5 -40 23 0 31 16 42 36 25 16 -13 30 -6 19 10 -8 15 -48 14
-63 -1z"/>
<path d="M2690 550 c0 -49 1 -50 30 -50 17 0 30 5 30 10 0 6 -9 10 -20 10 -27
0 -25 28 3 33 l22 4 -22 2 c-14 0 -23 7 -23 17 0 11 6 15 20 11 11 -3 20 -1
20 4 0 5 -13 9 -30 9 -29 0 -30 -1 -30 -50z"/>
<path d="M2787 593 c-15 -14 -6 -31 23 -43 17 -7 30 -16 30 -21 0 -13 -34 -11
-48 3 -9 9 -12 8 -12 -5 0 -18 41 -33 59 -22 20 12 12 45 -14 55 -14 5 -25 14
-25 20 0 14 27 12 33 -2 2 -7 8 -10 12 -6 4 4 4 11 0 17 -7 12 -48 15 -58 4z"/>
</g>
</svg>
