<?xml version="1.0" standalone="no"?>
<!DOCTYPE svg PUBLIC "-//W3C//DTD SVG 20010904//EN"
 "http://www.w3.org/TR/2001/REC-SVG-20010904/DTD/svg10.dtd">
<svg version="1.0" xmlns="http://www.w3.org/2000/svg"
 width="200.000000pt" height="200.000000pt" viewBox="0 0 200.000000 200.000000"
 preserveAspectRatio="xMidYMid meet">
<metadata>
Created by potrace 1.10, written by Peter Selinger 2001-2011
</metadata>
<g transform="translate(0.000000,200.000000) scale(0.100000,-0.100000)"
fill="#000000" stroke="none">
<path d="M1680 1121 l0 -51 34 0 c32 0 63 20 49 33 -3 4 -6 19 -7 34 -1 25 -5
28 -38 31 l-38 3 0 -50z m58 22 c2 -8 -5 -13 -17 -13 -12 0 -21 6 -21 16 0 18
31 15 38 -3z m-2 -34 c7 -12 -15 -31 -28 -23 -4 3 -8 12 -8 20 0 17 26 19 36
3z"/>
<path d="M1830 1120 c0 -27 5 -50 10 -50 6 0 10 23 10 50 0 28 -4 50 -10 50
-5 0 -10 -22 -10 -50z"/>
<path d="M1922 1158 c-7 -7 -12 -24 -12 -38 0 -31 17 -50 45 -50 28 0 45 19
45 50 0 31 -17 50 -45 50 -12 0 -26 -5 -33 -12z m56 -42 c-2 -13 -10 -21 -23
-21 -23 0 -32 30 -14 51 16 19 41 -1 37 -30z"/>
<path d="M488 1026 c-16 -8 -28 -11 -28 -5 0 5 -9 9 -20 9 -19 0 -20 -7 -20
-95 0 -88 1 -95 20 -95 18 0 20 7 20 56 0 64 13 94 40 94 15 0 20 7 20 25 0
29 2 29 -32 11z"/>
<path d="M873 1029 c-11 -4 -32 -19 -47 -34 -23 -23 -26 -34 -26 -90 0 -58 2
-65 20 -65 18 0 20 7 20 68 0 75 10 92 52 92 36 0 48 -24 48 -99 0 -54 2 -61
20 -61 18 0 20 7 20 69 0 53 -4 74 -20 93 -22 28 -56 39 -87 27z"/>
<path d="M32 1000 c-12 -16 -22 -34 -22 -40 0 -6 25 -22 56 -36 58 -26 67 -47
21 -52 -18 -2 -29 2 -33 12 -7 19 -44 21 -44 3 0 -54 129 -68 145 -16 11 34
-5 56 -56 78 -53 22 -61 43 -19 49 14 2 27 -3 32 -12 9 -16 48 -23 48 -8 0 4
-7 18 -16 30 -24 35 -84 31 -112 -8z"/>
<path d="M228 1016 c-69 -52 -30 -176 55 -179 35 -1 87 25 87 43 0 13 -37 13
-45 0 -16 -26 -95 2 -95 33 0 4 34 7 75 7 l75 0 0 30 c0 47 -39 80 -92 80 -24
0 -51 -6 -60 -14z m100 -28 c26 -26 13 -38 -43 -38 -59 0 -64 4 -38 32 18 20
63 24 81 6z"/>
<path d="M575 1005 c-19 -18 -25 -35 -25 -65 0 -54 14 -79 55 -96 36 -15 58
-11 88 14 15 14 17 13 17 -1 0 -10 8 -17 18 -17 15 0 17 11 17 95 0 82 -2 95
-17 95 -9 0 -18 -6 -21 -12 -4 -10 -7 -10 -18 0 -23 22 -87 15 -114 -13z m109
-18 c25 -18 25 -86 0 -104 -41 -30 -94 -2 -94 50 0 56 51 85 94 54z"/>
<path d="M1045 1005 c-31 -30 -35 -101 -7 -134 36 -44 125 -43 157 1 8 13 15
42 15 66 0 61 -32 92 -95 92 -35 0 -52 -6 -70 -25z m107 -22 c38 -34 12 -113
-38 -113 -32 0 -54 26 -54 65 0 58 51 85 92 48z"/>
<path d="M1269 935 c32 -85 39 -95 61 -95 22 0 29 10 61 95 36 94 36 95 15 95
-19 0 -26 -12 -46 -75 -13 -41 -26 -75 -30 -75 -4 0 -17 34 -30 75 -20 63 -27
75 -46 75 -21 0 -21 -1 15 -95z"/>
<path d="M1481 1013 c-53 -45 -42 -135 21 -166 35 -17 40 -17 70 -2 21 10 34
12 36 5 2 -5 12 -10 23 -10 17 0 19 8 19 95 0 87 -2 95 -19 95 -11 0 -21 -6
-24 -12 -4 -10 -7 -10 -18 0 -19 18 -83 15 -108 -5z m96 -21 c32 -20 32 -94 0
-114 -37 -24 -87 8 -87 55 0 51 48 84 87 59z"/>
</g>
</svg>
