<svg width="139" height="20" viewBox="0 0 139 20" fill="none" xmlns="http://www.w3.org/2000/svg">
<path fill-rule="evenodd" clip-rule="evenodd" d="M130.874 0.892794C130.72 0.440683 130.08 0.440684 129.927 0.892795L128.391 5.41138C128.322 5.61412 128.132 5.75047 127.917 5.75047H124.073C123.361 5.75047 123.033 6.63683 123.573 7.10101C125.363 8.63709 126.115 11.0619 125.509 13.341L125.422 13.6665C125.222 14.4175 126.067 15.0101 126.705 14.5668L130.115 12.1989C130.286 12.0798 130.514 12.0798 130.685 12.1989L134.715 14.9975C135.111 15.2726 135.629 14.8826 135.474 14.4259L133.959 9.97009C133.887 9.75891 133.964 9.52573 134.147 9.3985L138.089 6.66114C138.491 6.38175 138.293 5.75047 137.804 5.75047H132.883C132.669 5.75047 132.478 5.61412 132.41 5.41138L130.874 0.892794ZM3.19922 13.6388V8.44347H6.09961C6.90039 8.43696 7.5612 8.67459 8.08203 9.15636C8.57682 9.6772 8.82422 10.3022 8.82422 11.0314C8.82422 11.7605 8.57682 12.3888 8.08203 12.9161C7.5612 13.3979 6.89388 13.6388 6.08008 13.6388H3.19922ZM0.396484 19.0001H3.19922V16.0411H5.92383C7.77279 16.0476 9.20508 15.5821 10.2207 14.6446C11.2363 13.7071 11.7441 12.5092 11.7441 11.0509C11.7376 9.59256 11.2266 8.39139 10.2109 7.44738C9.19531 6.50988 7.77279 6.04113 5.94336 6.04113H0.396484V19.0001ZM16.0906 13.6388V8.44347H18.9715C19.7853 8.43696 20.4526 8.67459 20.9734 9.15636C21.4682 9.6772 21.7156 10.3087 21.7156 11.0509C21.7156 11.7931 21.465 12.4083 20.9637 12.8966C20.4624 13.3914 19.7918 13.6388 18.952 13.6388H16.0906ZM13.2879 19.0001H16.0906V16.0411H17.5945C18.0698 16.0411 18.6948 16.0281 19.4695 16.0021L21.4715 19.0001H24.8895L22.1941 15.2403C22.9819 14.7781 23.5841 14.1791 24.0008 13.4435C24.4174 12.7078 24.629 11.907 24.6355 11.0411C24.629 9.5828 24.118 8.38488 23.1023 7.44738C22.0867 6.50988 20.6642 6.04113 18.8348 6.04113H13.2879V19.0001ZM26.1793 19.0001H28.982V6.04113H26.1793V19.0001ZM37.5961 14.215C37.9737 14.4493 38.1658 14.7716 38.1723 15.1818C38.1723 15.5919 37.9249 15.9565 37.4301 16.2755C36.9092 16.575 36.3233 16.7247 35.6723 16.7247C34.1618 16.7182 32.7328 16.2364 31.3852 15.2794L30.3891 17.4376C31.8018 18.6095 33.5564 19.1954 35.6527 19.1954C37.0915 19.1954 38.3383 18.8471 39.393 18.1505C40.4477 17.4539 40.9783 16.4578 40.9848 15.1622C40.9913 13.1375 39.3474 11.7573 36.0531 11.0216C35.1547 10.8328 34.5297 10.6342 34.1781 10.4259C33.8266 10.2176 33.6508 9.90832 33.6508 9.49816C33.6508 9.088 33.8624 8.78852 34.2855 8.59972C34.7673 8.41092 35.2296 8.31652 35.6723 8.31652C37.0069 8.31652 38.2471 8.67134 39.393 9.38097L40.4086 7.22277C39.0349 6.29829 37.4561 5.83605 35.6723 5.83605C34.3181 5.84256 33.1723 6.17459 32.2348 6.83214C31.2973 7.4897 30.8285 8.40441 30.8285 9.57628C30.8546 10.364 31.0531 10.9988 31.4242 11.4806C31.7693 11.9754 32.2966 12.3953 33.0062 12.7403C33.7615 13.0724 34.6208 13.3426 35.5844 13.5509C36.5479 13.7592 37.2185 13.9806 37.5961 14.215ZM42.3918 19.0001H45.1945V10.8556L46.4152 12.7794L49.1984 16.8419L51.9328 12.8185C52.5187 11.9526 52.9322 11.2918 53.173 10.8361V19.0001H55.9758V6.04113H53.5539L51.5715 8.8048L49.1984 12.2423L46.7961 8.7755L44.8137 6.04113H42.3918V19.0001ZM92.9273 19.2247C94.8284 19.2247 96.4137 18.6713 97.6832 17.5646L95.984 15.6407C95.2092 16.3308 94.249 16.6759 93.1031 16.6759C91.9573 16.6759 91.0068 16.2722 90.2516 15.465C89.5029 14.6316 89.1285 13.6453 89.1285 12.506C89.1285 11.3666 89.5126 10.3933 90.2809 9.58605C91.0491 8.77876 92.0452 8.37837 93.2691 8.38488C94.2001 8.37837 95.0204 8.62902 95.7301 9.13683L97.3512 7.2423C96.1337 6.3048 94.7047 5.83605 93.0641 5.83605C91.0849 5.83605 89.4475 6.48058 88.152 7.76964C86.8564 9.05871 86.2086 10.644 86.2086 12.5255C86.2086 14.4005 86.8531 15.9858 88.1422 17.2814C89.4313 18.5769 91.0263 19.2247 92.9273 19.2247ZM76.5977 19.0001H73.8047V8.44347H69.4004V6.04113H81.9988H83.002H84.8016V19.0001H81.9988V8.44347H76.5977V19.0001ZM109.461 17.5646C108.192 18.6713 106.607 19.2247 104.705 19.2247C102.804 19.2247 101.209 18.5769 99.9203 17.2814C98.6312 15.9858 97.9867 14.4005 97.9867 12.5255C97.9867 10.644 98.6345 9.05871 99.9301 7.76964C101.226 6.48058 102.863 5.83605 104.842 5.83605C106.483 5.83605 107.912 6.3048 109.129 7.2423L107.508 9.13683C106.799 8.62902 105.978 8.37837 105.047 8.38488C103.823 8.37837 102.827 8.77876 102.059 9.58605C101.291 10.3933 100.907 11.3666 100.907 12.506C100.907 13.6453 101.281 14.6316 102.03 15.465C102.785 16.2722 103.735 16.6759 104.881 16.6759C106.027 16.6759 106.987 16.3308 107.762 15.6407L109.461 17.5646ZM111.708 7.76964C110.413 9.05871 109.765 10.644 109.765 12.5255C109.765 14.4005 110.409 15.9858 111.698 17.2814C112.988 18.5769 114.625 19.2247 116.611 19.2247C118.59 19.2247 120.23 18.5737 121.532 17.2716C122.835 15.976 123.486 14.3972 123.486 12.5353C123.486 10.6733 122.835 9.09126 121.532 7.78918C120.237 6.48709 118.599 5.83605 116.62 5.83605C114.641 5.83605 113.004 6.48058 111.708 7.76964ZM112.685 12.5255C112.685 11.3992 113.059 10.4226 113.808 9.59582C114.563 8.78201 115.507 8.37511 116.64 8.37511C117.773 8.37511 118.71 8.78527 119.452 9.60558C120.195 10.4259 120.566 11.4025 120.566 12.5353C120.566 13.6551 120.195 14.6251 119.452 15.4454C118.71 16.2657 117.773 16.6759 116.64 16.6759C115.507 16.6759 114.563 16.2722 113.808 15.465C113.059 14.6316 112.685 13.6518 112.685 12.5255ZM72 19.0001L66 6.00011H63L57 19.0001H60L64.5 9.25011L66.6923 14.0001H64.8L63.5 17.0001H68.0769L69 19.0001H72Z" fill="white"/>
</svg>
