<svg width="20" height="14" viewBox="0 0 20 14" fill="none" xmlns="http://www.w3.org/2000/svg">
<path d="M19 12H9C8.44772 12 8 12.4477 8 13C8 13.5523 8.44772 14 9 14H19C19.5523 14 20 13.5523 20 13C20 12.4477 19.5523 12 19 12Z" fill="white"/>
<path d="M19 6H1C0.447715 6 0 6.44772 0 7C0 7.55228 0.447715 8 1 8H19C19.5523 8 20 7.55228 20 7C20 6.44772 19.5523 6 19 6Z" fill="white"/>
<path d="M19 0H5C4.44772 0 4 0.447715 4 1C4 1.55228 4.44772 2 5 2H19C19.5523 2 20 1.55228 20 1C20 0.447715 19.5523 0 19 0Z" fill="white"/>
</svg>
