<svg preserveAspectRatio="xMidYMid meet" data-bbox="1.185 1.777 107.884 19.419" xmlns="http://www.w3.org/2000/svg" viewBox="1.185 1.777 107.884 19.419" data-type="color" role="presentation" aria-hidden="true" aria-labelledby="svgcid-kd5b0x-uxvpp6"><title id="svgcid-kd5b0x-uxvpp6"/><g><mask height="22" width="111" y="0" x="0" maskUnits="userSpaceOnUse" style="mask-type:alpha" id="svgcid--dml4po3ivm18" fill="none"><path fill="#D9D9D9" d="M110.423 0v22H0V0h110.423z"/></mask><g mask="url(#svgcid--dml4po3ivm18)"><mask height="337" width="260" y="-163" x="-72" maskUnits="userSpaceOnUse" style="mask-type:luminance" id="svgcid-9gqmtivlr6da" fill="none"><path fill="#ffffff" d="M187.423-162.039H-71.5v335.077h258.923v-335.077Z"/></mask><g mask="url(#svgcid-9gqmtivlr6da)"><path fill="#000917" d="M10.915 1.862c5.543 0 9.646 4.146 9.646 9.646 0 5.542-4.188 9.688-9.773 9.688-5.457 0-9.603-4.061-9.603-9.604 0-5.5 4.188-9.73 9.73-9.73ZM10.831 18.7c3.85 0 6.938-3.046 6.938-7.15 0-4.23-3.046-7.15-6.896-7.15s-6.896 2.962-6.896 7.192c0 4.104 2.961 7.108 6.854 7.108Z" data-color="1"/></g><mask height="337" width="260" y="-163" x="-72" maskUnits="userSpaceOnUse" style="mask-type:luminance" id="svgcid-yzapcv17gmft" fill="none"><path fill="#ffffff" d="M187.423-162.039H-71.5v335.077h258.923v-335.077Z"/></mask><g mask="url(#svgcid-yzapcv17gmft)"><path fill="#000917" d="M40.742 16.754c.17-.17.339-.254.466-.254.169 0 .253.127.423.254l.761 1.058c.127.127.127.253.127.38 0 .17-.127.297-.338.466a10.742 10.742 0 0 1-6.939 2.538c-5.288 0-9.561-3.977-9.561-9.604 0-5.584 4.188-9.773 9.688-9.773 2.666 0 5.077 1.016 6.812 2.497.169.126.254.253.254.423 0 .127-.043.253-.17.423l-.761 1.057c-.127.17-.254.296-.423.296-.127 0-.254-.084-.466-.211-1.438-1.142-3.257-1.904-5.33-1.904-3.85 0-6.854 2.92-6.854 7.15 0 4.062 2.961 7.108 6.854 7.108 2.2.042 3.976-.677 5.457-1.904Z" data-color="1"/></g><mask height="337" width="260" y="-163" x="-72" maskUnits="userSpaceOnUse" style="mask-type:luminance" id="svgcid-7kjzp6pjc0hf" fill="none"><path fill="#ffffff" d="M187.423-162.039H-71.5v335.077h258.923v-335.077Z"/></mask><g mask="url(#svgcid-7kjzp6pjc0hf)"><path fill="#000917" d="M61.812 16.754c.169-.17.338-.254.465-.254.17 0 .254.127.423.254l.761 1.058c.128.127.128.253.128.38 0 .17-.127.297-.339.466a10.742 10.742 0 0 1-6.938 2.538c-5.289 0-9.562-3.977-9.562-9.604 0-5.584 4.188-9.773 9.688-9.773 2.666 0 5.077 1.016 6.812 2.497.17.126.254.253.254.423 0 .127-.042.253-.17.423l-.76 1.057c-.128.17-.255.296-.424.296-.127 0-.254-.084-.465-.211C60.246 5.162 58.427 4.4 56.354 4.4c-3.85 0-6.854 2.92-6.854 7.15 0 4.062 2.962 7.108 6.854 7.108 2.2.042 3.977-.677 5.458-1.904Z" data-color="1"/></g><mask height="337" width="260" y="-163" x="-72" maskUnits="userSpaceOnUse" style="mask-type:luminance" id="svgcid--c614c8-aq6kx8" fill="none"><path fill="#ffffff" d="M187.423-162.039H-71.5v335.077h258.923v-335.077Z"/></mask><g mask="url(#svgcid--c614c8-aq6kx8)"><path fill="#000917" d="M93.754 20.35c0 .465-.17.592-.593.592h-1.48c-.423 0-.593-.127-.593-.592V2.792c0-.55.127-.888.55-.888.339 0 .55.254 1.016.761l7.488 8.97 7.362-8.97c.465-.55.677-.761 1.015-.761.423 0 .55.338.55.888V20.35c0 .465-.169.592-.592.592h-1.481c-.423 0-.592-.127-.592-.592V7.87l-5.373 6.6c-.466.591-.635.76-.931.76-.296 0-.465-.168-.93-.76l-5.374-6.6v12.48h-.042Z" data-color="1"/></g><mask height="337" width="260" y="-163" x="-72" maskUnits="userSpaceOnUse" style="mask-type:luminance" id="svgcid--5jmzr6-fkjwf6" fill="none"><path fill="#ffffff" d="M187.423-162.039H-71.5v335.077h258.923v-335.077Z"/></mask><g mask="url(#svgcid--5jmzr6-fkjwf6)"><path fill="#356DE5" d="m78.1 3.808-.338-.677c-.508-1.058-.677-1.354-.973-1.354-.339 0-.55.254-1.058 1.354l-8.08 17.007c-.085.17-.128.339-.128.466 0 .254.17.338.55.338h1.396c.593 0 .762-.169 1.058-.804l5.077-10.915L78.1 3.808Z" data-color="2"/></g><mask height="337" width="260" y="-163" x="-72" maskUnits="userSpaceOnUse" style="mask-type:luminance" id="svgcid--jjjvra-g6jbat" fill="none"><path fill="#ffffff" d="M187.423-162.039H-71.5v335.077h258.923v-335.077Z"/></mask><g mask="url(#svgcid--jjjvra-g6jbat)"><path fill="#356DE5" d="M85.927 20.139 79.454 6.642l-1.396 3.004 4.865 10.492c.338.635.508.804 1.058.804h1.48c.381 0 .55-.127.55-.338.043-.127 0-.296-.084-.465Z" data-color="2"/></g></g></g></svg>