<svg width="30" height="31" viewBox="0 0 30 31" fill="none" xmlns="http://www.w3.org/2000/svg">
<path fill-rule="evenodd" clip-rule="evenodd" d="M3.33333 0.589844H26.6667C28.5077 0.589844 30 2.08223 30 3.92318V27.2565C30 29.0975 28.5077 30.5898 26.6667 30.5898H3.33333C1.49238 30.5898 0 29.0975 0 27.2565V3.92318C0 2.08223 1.49238 0.589844 3.33333 0.589844ZM8.33333 25.5898C8.79357 25.5898 9.16667 25.2167 9.16667 24.7565V13.0898C9.16667 12.6297 8.79357 12.2565 8.33333 12.2565H5.83333C5.3731 12.2565 5 12.6297 5 13.0898V24.7565C5 25.2167 5.3731 25.5898 5.83333 25.5898H8.33333ZM7.08333 10.5898C5.70262 10.5898 4.58333 9.47056 4.58333 8.08984C4.58333 6.70913 5.70262 5.58984 7.08333 5.58984C8.46405 5.58984 9.58333 6.70913 9.58333 8.08984C9.58333 9.47056 8.46405 10.5898 7.08333 10.5898ZM24.1667 25.5898C24.6268 25.5898 25 25.2167 25 24.7565V17.0898C25.0542 14.4412 23.096 12.1807 20.4667 11.8565C18.6283 11.6886 16.8472 12.5472 15.8333 14.0898V13.0898C15.8333 12.6297 15.4602 12.2565 15 12.2565H12.5C12.0398 12.2565 11.6667 12.6297 11.6667 13.0898V24.7565C11.6667 25.2167 12.0398 25.5898 12.5 25.5898H15C15.4602 25.5898 15.8333 25.2167 15.8333 24.7565V18.5065C15.8333 17.1258 16.9527 16.0065 18.3333 16.0065C19.714 16.0065 20.8333 17.1258 20.8333 18.5065V24.7565C20.8333 25.2167 21.2065 25.5898 21.6667 25.5898H24.1667Z" fill="white"/>
</svg>
